<svg width="226" height="120" viewBox="0 0 226 120" fill="none" xmlns="http://www.w3.org/2000/svg">
<path d="M144.315 21.6714C140.707 20.354 137.055 19.0678 133.608 17.8566L130.899 16.9138C128.027 15.9148 125.087 14.8909 122.159 13.9106C118.294 12.5932 114.505 11.3071 110.703 10.0396C107.8 9.07188 103.991 7.80444 100.183 6.55573L100.052 6.51202L99.9894 3.12178L100.264 3.20919L137.972 15.9211L97.667 0V16.4455L97.6357 20.6349C97.6357 24.737 97.5983 28.9014 97.592 32.9347V33.9399C97.592 38.2105 97.592 42.7558 97.642 47.245C97.642 51.1659 97.7044 55.0931 97.7544 58.9266L100.058 58.5395C100.108 54.7185 100.145 50.9162 100.17 47.245C100.17 43.2865 100.208 39.2719 100.214 35.5071V35.301L105.883 35.5071V57.5655L107.756 57.2471V35.5882L113.631 35.8068V56.2669L115.029 56.0296V35.8442L117.108 35.9192V55.68L118.019 55.5302V35.9504L124.144 36.1751V54.5L124.812 54.3876V36.2126L127.99 36.3312V53.8569L128.414 53.7882V36.3063L141.718 36.837L131.33 35.8193V18.0564L133.396 18.6432C136.867 19.6297 140.588 20.6724 144.315 21.6714ZM107.15 33.428L100.214 32.7474V32.4665C100.214 28.583 100.214 24.5746 100.177 20.6037L100.064 8.84711L100.333 8.92204L107.007 10.9325L107.15 10.9762V33.428ZM111.102 33.8151L109.042 33.6153V11.5755L111.102 12.1999V33.8151ZM118.107 34.5019L112.488 33.9524V12.5995L112.75 12.6744L117.994 14.2041L118.138 14.2478L118.107 34.5019ZM123.189 35.0014L119.025 34.5955V14.5163L123.189 15.7275V35.0014ZM128.658 35.5383L123.857 35.07V15.9273L124.119 16.0022L128.489 17.2509L128.639 17.2946L128.658 35.5383ZM131.124 35.7818L129.082 35.5882V17.4258L131.124 18.0064V35.7818Z" fill="#072826"/>
<path d="M14.2031 78.7024L14.253 94.8357H14.1344L1.1737 82.6546H1.0863L1.11751 94.8357H0.0499448L0 78.7024H0.118619L13.0731 90.8836H13.1667L13.1105 78.7024H14.2031Z" fill="#072826"/>
<path d="M39.6312 78.7026V79.9513H31.2218V85.7266H38.4388V86.788H31.2218V93.531H39.625V94.7797H29.0991L29.0492 78.6838L39.6312 78.7026Z" fill="#072826"/>
<path d="M52.4421 78.7213H58.2794C58.9983 78.7074 59.7136 78.826 60.3896 79.0709C60.9341 79.2756 61.4343 79.583 61.863 79.9763C62.2277 80.3199 62.5187 80.7341 62.7183 81.1937C62.8981 81.6078 62.9936 82.0535 62.9992 82.5049C63.0069 82.9899 62.8977 83.4696 62.6808 83.9034C62.4615 84.3307 62.1652 84.7138 61.8068 85.0335C61.4376 85.3704 61.0158 85.6445 60.5582 85.8452C60.0734 86.0552 59.5507 86.1636 59.0224 86.1636V86.251C59.4745 86.2804 59.9247 86.3346 60.3709 86.4134C60.942 86.5042 61.4945 86.6877 62.0066 86.9565C62.5484 87.2455 63.0179 87.6532 63.3801 88.1491C63.7968 88.7644 64.0028 89.4983 63.9669 90.2407C63.97 90.8028 63.8727 91.361 63.6797 91.889C63.4828 92.4442 63.1601 92.9463 62.737 93.3562C62.2422 93.8238 61.6553 94.1831 61.0139 94.4113C60.1647 94.7021 59.2705 94.8395 58.3731 94.8172H52.5046L52.4421 78.7213ZM57.3804 85.7515C57.8276 85.7521 58.2714 85.6739 58.6915 85.5205C59.0893 85.3778 59.4591 85.1665 59.784 84.8962C60.0988 84.6213 60.352 84.283 60.527 83.9034C60.7065 83.512 60.7961 83.0853 60.7892 82.6547C60.7877 82.2928 60.7244 81.9339 60.6019 81.5933C60.4686 81.2355 60.255 80.9129 59.9776 80.6506C59.6791 80.3577 59.3215 80.1321 58.9287 79.9887C58.4328 79.8093 57.9076 79.7246 57.3804 79.739H54.5585V85.7765L57.3804 85.7515ZM58.0047 93.8057C58.4857 93.8077 58.9639 93.734 59.4219 93.5872C60.0777 93.374 60.6474 92.9553 61.0466 92.393C61.4457 91.8308 61.6532 91.1548 61.6382 90.4654C61.6398 89.9843 61.5486 89.5073 61.3698 89.0606C61.193 88.6068 60.9155 88.199 60.5582 87.8681C60.1539 87.5075 59.6801 87.2334 59.166 87.0627C58.5249 86.8559 57.8541 86.7568 57.1807 86.7692H54.6085V93.812L58.0047 93.8057Z" fill="#072826"/>
<path d="M76.0286 84.0596C76.3686 83.0906 76.9017 82.2006 77.5956 81.4435C78.3578 80.607 79.2817 79.9337 80.3114 79.4643C81.5558 78.9103 82.9077 78.6395 84.2695 78.6714C85.6564 78.637 87.0344 78.9033 88.3088 79.4519C89.3761 79.9219 90.3412 80.5964 91.1494 81.4373C91.8699 82.1866 92.4344 83.0716 92.81 84.0409C93.1528 84.8866 93.3369 85.7882 93.3532 86.7006C93.3536 87.2873 93.2738 87.8713 93.116 88.4363C92.946 89.0671 92.7051 89.6766 92.398 90.2532C91.7089 91.5523 90.6823 92.6415 89.4263 93.4062C88.7153 93.8406 87.9488 94.1766 87.1476 94.4052C86.2278 94.6654 85.2752 94.7916 84.3194 94.7798C82.9589 94.819 81.6068 94.5546 80.3613 94.0056C79.3275 93.5341 78.3996 92.8588 77.6331 92.0201C76.9383 91.2639 76.4013 90.3766 76.0536 89.4103C75.7313 88.5619 75.5581 87.6642 75.5416 86.7568C75.5513 85.8368 75.716 84.9249 76.0286 84.0596ZM78.326 89.6039C78.6391 90.4301 79.1075 91.1889 79.7058 91.8391C80.2888 92.4575 80.992 92.9504 81.7722 93.2876C82.5883 93.6376 83.469 93.8121 84.3569 93.7995C85.2501 93.8059 86.1348 93.6251 86.954 93.2688C87.7547 92.9266 88.4802 92.4302 89.0892 91.8078C89.7153 91.1637 90.2076 90.4019 90.5376 89.5664C90.8995 88.657 91.0798 87.6856 91.0682 86.7069C91.0731 85.7276 90.8887 84.7566 90.5251 83.8473C90.1843 83.0182 89.6884 82.2617 89.0642 81.6184C88.449 81.0009 87.7195 80.5089 86.9166 80.1699C86.0952 79.8219 85.2114 79.6455 84.3194 79.6516C83.4304 79.6471 82.5501 79.8278 81.7348 80.1823C80.956 80.5272 80.2552 81.0264 79.6746 81.6496C79.0796 82.3 78.6154 83.0589 78.3073 83.8848C77.6455 85.7337 77.6455 87.7549 78.3073 89.6039H78.326Z" fill="#072826"/>
<path d="M106.283 90.5719C106.314 90.8855 106.376 91.1951 106.47 91.496C106.599 91.8908 106.812 92.253 107.094 92.5574C107.476 92.9459 107.939 93.2463 108.449 93.4377C109.203 93.7071 110.002 93.8301 110.803 93.7999C111.828 93.8441 112.847 93.6088 113.749 93.1193C114.113 92.901 114.41 92.5871 114.609 92.2118C114.807 91.8364 114.898 91.4139 114.873 90.9903C114.891 90.6463 114.838 90.3023 114.716 89.98C114.595 89.6576 114.408 89.3639 114.168 89.1172C113.653 88.6285 113.057 88.2334 112.407 87.9496C111.659 87.6179 110.892 87.3323 110.11 87.0943C109.32 86.8582 108.551 86.5553 107.812 86.189C107.145 85.8604 106.548 85.4068 106.052 84.8528C105.562 84.2567 105.311 83.5005 105.346 82.73C105.332 82.1063 105.478 81.4894 105.771 80.9381C106.052 80.4212 106.45 79.9767 106.932 79.6395C107.452 79.2835 108.028 79.0176 108.636 78.8528C109.299 78.6682 109.984 78.5758 110.672 78.5781C111.336 78.5694 111.999 78.6449 112.644 78.8028C113.239 78.9459 113.81 79.1774 114.336 79.4896C114.819 79.78 115.243 80.1592 115.585 80.6072C115.909 81.0454 116.123 81.555 116.209 82.0932H114.623C114.585 81.6951 114.451 81.3121 114.234 80.9764C114.017 80.6407 113.722 80.362 113.375 80.1639C112.585 79.732 111.696 79.5166 110.796 79.5396C110.254 79.5316 109.713 79.6053 109.192 79.7581C108.77 79.8793 108.372 80.0691 108.012 80.32C107.712 80.5325 107.466 80.8127 107.294 81.1379C107.132 81.4483 107.049 81.7933 107.051 82.1431C107.041 82.4397 107.103 82.7341 107.23 83.0022C107.357 83.2704 107.546 83.5045 107.781 83.6853C108.332 84.1128 108.941 84.4577 109.591 84.7092C110.316 85.0006 111.102 85.2816 111.951 85.5521C112.769 85.8021 113.559 86.1325 114.311 86.5386C115.006 86.9051 115.622 87.4059 116.122 88.0121C116.628 88.6567 116.889 89.4597 116.858 90.2785C116.867 90.9149 116.723 91.5441 116.44 92.1141C116.158 92.669 115.752 93.1517 115.254 93.5251C114.69 93.937 114.055 94.2418 113.381 94.4242C112.589 94.6465 111.769 94.7537 110.946 94.7426C110.121 94.7555 109.298 94.6568 108.499 94.4492C107.807 94.2738 107.147 93.9893 106.545 93.6063C106.018 93.2645 105.571 92.813 105.234 92.2827C104.915 91.7527 104.733 91.1521 104.703 90.5345L106.283 90.5719Z" fill="#072826"/>
<path d="M129.688 84.3903H128.851V78.7024H131.061L129.688 84.3903Z" fill="#072826"/>
<path d="M146.482 94.8734H144.365L144.315 78.7588H146.438V85.8078H156.196V78.7588H158.319L158.362 94.8734H156.246V86.8629H146.488L146.482 94.8734Z" fill="#072826"/>
<path d="M176.261 78.6653L176.311 94.7799H174.182L174.132 78.6653H176.261Z" fill="#072826"/>
<path d="M202.67 93.5684L202.664 93.4311L194.26 93.456L194.217 78.6089L192.1 78.6151L192.144 94.2053V94.7609H202.67V93.5684Z" fill="#072826"/>
<path d="M226 93.5684V93.506L225.994 93.4311L217.616 93.456H217.591L217.547 78.6089L215.43 78.6151V78.6588L215.474 94.2178V94.7609H226V93.5684Z" fill="#072826"/>
<path d="M66.6689 115.507C66.6836 115.794 66.6212 116.08 66.4881 116.334C66.355 116.589 66.1561 116.804 65.9121 116.956C65.2585 117.334 64.5079 117.51 63.7544 117.463H62.9009V119.879H62.0958V113.703H63.9798C65.7591 113.703 66.6689 114.307 66.6689 115.507ZM62.9009 116.843H63.7061C64.26 116.878 64.8138 116.773 65.3163 116.537C65.482 116.433 65.6161 116.286 65.7041 116.112C65.7921 115.937 65.8306 115.742 65.8155 115.547C65.8266 115.366 65.7892 115.186 65.7071 115.024C65.625 114.863 65.5012 114.726 65.3485 114.629C64.893 114.399 64.3841 114.296 63.8751 114.331H62.9251L62.9009 116.843Z" fill="#072826"/>
<path d="M71.0806 117.321V119.898H70.2352V113.706H72.2319C72.9188 113.654 73.6055 113.808 74.2045 114.149C74.4155 114.292 74.5858 114.487 74.6987 114.716C74.8116 114.944 74.8632 115.198 74.8486 115.453C74.8486 116.258 74.3575 116.83 73.3833 117.12L75.3638 119.898H74.3574L72.5942 117.321H71.0806ZM71.0806 116.709H72.24C72.6983 116.742 73.1559 116.636 73.5523 116.403C73.6926 116.299 73.8044 116.16 73.8775 116.001C73.9507 115.843 73.9828 115.668 73.971 115.493C73.9839 115.321 73.9513 115.149 73.8764 114.993C73.8015 114.838 73.6869 114.705 73.5443 114.608C73.1196 114.399 72.6473 114.308 72.1756 114.342H71.0806V116.709Z" fill="#072826"/>
<path d="M82.6342 119.898H78.6086V113.706H82.6342V114.35H79.4138V116.339H82.433V116.975H79.4218V119.253H82.6423L82.6342 119.898Z" fill="#072826"/>
<path d="M89.5022 119.898L87.0385 114.414H86.9983C87.0473 114.928 87.0689 115.444 87.0627 115.96V119.898H86.2576V113.706H87.5377L89.8403 118.811H89.8806L92.2235 113.706H93.4875V119.898H92.6422V115.872C92.6422 115.413 92.6422 114.914 92.7066 114.382H92.6663L90.1785 119.857L89.5022 119.898Z" fill="#072826"/>
<path d="M97.5289 119.898V113.706H98.3336V119.898H97.5289Z" fill="#072826"/>
<path d="M107.907 113.706V117.731C107.921 118.047 107.86 118.362 107.73 118.65C107.6 118.938 107.404 119.191 107.158 119.39C106.559 119.823 105.828 120.036 105.089 119.994C104.36 120.04 103.639 119.826 103.052 119.39C102.815 119.183 102.627 118.924 102.503 118.634C102.379 118.344 102.322 118.03 102.336 117.715V113.689H103.181V117.715C103.169 117.939 103.208 118.162 103.294 118.368C103.38 118.575 103.513 118.759 103.68 118.907C104.106 119.21 104.624 119.355 105.146 119.318C105.653 119.352 106.156 119.204 106.563 118.899C106.731 118.752 106.864 118.568 106.951 118.361C107.037 118.155 107.075 117.931 107.062 117.707V113.681L107.907 113.706Z" fill="#072826"/>
<path d="M115.097 119.898L112.625 114.414H112.585C112.637 114.928 112.661 115.444 112.658 115.96V119.898H111.852V113.706H113.157L115.459 118.811H115.5L117.826 113.706H119.09V119.898H118.245V115.872C118.245 115.413 118.245 114.914 118.309 114.382L115.822 119.857L115.097 119.898Z" fill="#072826"/>
<path d="M133.333 119.898H132.479V116.983H128.639V119.898H127.793V113.706H128.639V116.339H132.479V113.706H133.325L133.333 119.898Z" fill="#072826"/>
<path d="M143.687 116.798C143.709 117.227 143.642 117.656 143.489 118.058C143.337 118.46 143.102 118.826 142.801 119.133C142.136 119.718 141.27 120.021 140.386 119.978C139.485 120.045 138.595 119.756 137.906 119.173C137.603 118.863 137.368 118.493 137.217 118.086C137.066 117.68 137.001 117.247 137.028 116.814C137.001 116.383 137.065 115.952 137.216 115.548C137.367 115.144 137.602 114.777 137.906 114.471C138.598 113.887 139.491 113.597 140.394 113.666C141.278 113.621 142.145 113.924 142.809 114.511C143.103 114.813 143.332 115.171 143.483 115.564C143.633 115.957 143.703 116.377 143.687 116.798ZM137.882 116.798C137.856 117.141 137.899 117.486 138.008 117.812C138.117 118.138 138.291 118.439 138.518 118.698C139.034 119.118 139.68 119.347 140.345 119.347C141.011 119.347 141.656 119.118 142.173 118.698C142.571 118.143 142.785 117.477 142.785 116.794C142.785 116.111 142.571 115.445 142.173 114.889C141.656 114.47 141.011 114.241 140.345 114.241C139.68 114.241 139.034 114.47 138.518 114.889C138.29 115.149 138.116 115.451 138.006 115.779C137.897 116.107 137.855 116.453 137.882 116.798Z" fill="#072826"/>
<path d="M150.57 119.898L148.099 114.414H148.058C148.111 114.928 148.135 115.444 148.131 115.96V119.898H147.326V113.706H148.598L150.901 118.811H150.997L153.324 113.706H154.588V119.898H153.783V115.872C153.783 115.413 153.783 114.914 153.847 114.382L151.359 119.857L150.57 119.898Z" fill="#072826"/>
<path d="M162.647 119.898H158.622V113.706H162.647V114.35H159.427V116.339H162.446V116.975H159.427V119.253H162.647V119.898Z" fill="#072826"/>
</svg>
