<svg width="33" height="40" viewBox="0 0 33 40" fill="none" xmlns="http://www.w3.org/2000/svg">
<path d="M33 14.7107C30.4514 13.8165 27.8719 12.9434 25.4379 12.1212L23.5242 11.4812C21.4959 10.8031 19.419 10.1081 17.351 9.44268C14.6216 8.54842 11.9451 7.67536 9.25975 6.815C7.20938 6.15808 4.51964 5.29773 1.8299 4.4501L1.7373 4.42043L1.69321 2.11909L1.88723 2.17843L28.52 10.8074L0.0529107 0V11.1634L0.0308624 14.0072C0.0308624 16.7917 0.00440941 19.6186 0 22.3564V23.0388C0 25.9377 -5.92005e-06 29.0231 0.0352693 32.0704C0.0352693 34.7319 0.0793669 37.3978 0.114642 40L1.74171 39.7372C1.77699 37.1435 1.80344 34.5624 1.82108 32.0704C1.82108 29.3833 1.84754 26.6582 1.85195 24.1026V23.9627L5.85569 24.1026V39.0761L7.17851 38.8599V24.1577L11.3278 24.306V38.1945L12.3155 38.0335V24.3314L13.7838 24.3823V37.7961L14.4276 37.6944V24.4035L18.7532 24.5561V36.9951L19.225 36.9188V24.5815L21.4694 24.662V36.5586L21.7692 36.512V24.6451L31.1657 25.0053L23.8284 24.3145V12.2568L25.2879 12.6552C27.7396 13.3249 30.3676 14.0326 33 14.7107ZM6.7508 22.6912L1.85195 22.2293V22.0386C1.85195 19.4024 1.85195 16.6815 1.82549 13.986L1.74612 6.00551L1.93573 6.05637L6.64938 7.42106L6.7508 7.45073V22.6912ZM9.54196 22.954L8.08685 22.8184V7.8576L9.54196 8.28142V22.954ZM14.4893 23.4202L10.5208 23.0473V8.55266L10.706 8.60352L14.4099 9.64187L14.5114 9.67154L14.4893 23.4202ZM18.0786 23.7593L15.1375 23.4838V9.85378L18.0786 10.676V23.7593ZM21.9412 24.1238L18.5504 23.8059V10.8116L18.7356 10.8625L21.8222 11.7101L21.928 11.7398L21.9412 24.1238ZM23.6829 24.289L22.241 24.1577V11.8288L23.6829 12.2229V24.289Z" fill="#072826"/>
</svg>
