<svg width="226" height="17" viewBox="0 0 226 17" fill="none" xmlns="http://www.w3.org/2000/svg">
<path d="M14.2031 0.125L14.253 16.2583H14.1344L1.1737 4.07716H1.0863L1.11751 16.2583H0.0499448L0 0.125H0.118619L13.0731 12.3062H13.1667L13.1105 0.125H14.2031Z" fill="#072826"/>
<path d="M39.6314 0.125185V1.3739H31.2219V7.14918H38.4389V8.21058H31.2219V14.9536H39.6251V16.2023H29.0993L29.0493 0.106445L39.6314 0.125185Z" fill="#072826"/>
<path d="M52.4419 0.143911H58.2792C58.9981 0.130055 59.7134 0.248572 60.3894 0.493548C60.9339 0.698241 61.4341 1.00557 61.8627 1.39886C62.2274 1.74251 62.5184 2.15673 62.718 2.61635C62.8979 3.03039 62.9934 3.47613 62.999 3.9275C63.0066 4.41249 62.8974 4.89218 62.6806 5.32605C62.4613 5.75333 62.165 6.13645 61.8065 6.45614C61.4374 6.79297 61.0156 7.06714 60.5579 7.2678C60.0731 7.47781 59.5504 7.58619 59.0221 7.58622V7.67363C59.4743 7.70301 59.9244 7.7572 60.3706 7.83596C60.9418 7.92678 61.4943 8.11026 62.0063 8.37915C62.5481 8.66814 63.0176 9.07579 63.3798 9.57167C63.7966 10.187 64.0025 10.9209 63.9667 11.6633C63.9697 12.2254 63.8725 12.7836 63.6795 13.3116C63.4825 13.8668 63.1599 14.3689 62.7368 14.7788C62.2419 15.2464 61.6551 15.6057 61.0137 15.8339C60.1644 16.1247 59.2702 16.2621 58.3728 16.2398H52.5043L52.4419 0.143911ZM57.3802 7.17415C57.8274 7.17472 58.2712 7.09653 58.6912 6.94314C59.0891 6.80038 59.4588 6.58907 59.7838 6.31878C60.0986 6.04392 60.3518 5.70562 60.5267 5.32605C60.7062 4.93461 60.7958 4.50793 60.7889 4.07734C60.7875 3.71544 60.7242 3.35646 60.6016 3.01594C60.4683 2.65808 60.2548 2.33556 59.9773 2.07317C59.6788 1.78035 59.3212 1.55471 58.9285 1.41135C58.4326 1.23195 57.9074 1.14723 57.3802 1.1616H54.5583V7.19912L57.3802 7.17415ZM58.0045 15.2283C58.4854 15.2303 58.9637 15.1566 59.4217 15.0098C60.0775 14.7967 60.6471 14.3779 61.0463 13.8156C61.4455 13.2534 61.653 12.5775 61.638 11.888C61.6395 11.4069 61.5484 10.9299 61.3695 10.4832C61.1928 10.0294 60.9153 9.62161 60.5579 9.29071C60.1537 8.93007 59.6799 8.65598 59.1657 8.4853C58.5247 8.27853 57.8538 8.17937 57.1804 8.19185H54.6083V15.2346L58.0045 15.2283Z" fill="#072826"/>
<path d="M76.0285 5.48219C76.3685 4.51316 76.9016 3.6232 77.5955 2.86615C78.3577 2.02964 79.2815 1.35634 80.3112 0.886938C81.5557 0.332914 82.9076 0.0620956 84.2694 0.0940138C85.6563 0.0596517 87.0343 0.325894 88.3086 0.874458C89.376 1.3445 90.3411 2.019 91.1493 2.8599C91.8698 3.6092 92.4343 4.49418 92.8099 5.46346C93.1526 6.30921 93.3367 7.21082 93.3531 8.12322C93.3535 8.7099 93.2736 9.29387 93.1158 9.85893C92.9459 10.4897 92.705 11.0992 92.3979 11.6758C91.7087 12.9749 90.6822 14.0641 89.4262 14.8288C88.7152 15.2632 87.9486 15.5993 87.1474 15.8278C86.2276 16.088 85.2751 16.2142 84.3193 16.2024C82.9588 16.2416 81.6066 15.9772 80.3612 15.4282C79.3274 14.9567 78.3995 14.2814 77.6329 13.4427C76.9382 12.6865 76.4012 11.7992 76.0534 10.8329C75.7311 9.98454 75.5579 9.08681 75.5415 8.17941C75.5512 7.25937 75.7158 6.34753 76.0285 5.48219ZM78.3259 11.0265C78.639 11.8528 79.1073 12.6115 79.7057 13.2617C80.2887 13.8801 80.9919 14.373 81.7721 14.7102C82.5882 15.0602 83.4688 15.2347 84.3568 15.2221C85.25 15.2285 86.1347 15.0477 86.9539 14.6914C87.7546 14.3492 88.48 13.8528 89.089 13.2304C89.7152 12.5863 90.2074 11.8245 90.5374 10.989C90.8994 10.0796 91.0797 9.10816 91.0681 8.12946C91.073 7.15018 90.8886 6.17919 90.5249 5.26991C90.1841 4.44079 89.6883 3.68429 89.0641 3.04097C88.4488 2.42349 87.7194 1.93152 86.9164 1.59246C86.0951 1.24448 85.2113 1.06813 84.3193 1.07425C83.4302 1.06966 82.55 1.25041 81.7347 1.60495C80.9559 1.94986 80.255 2.44897 79.6744 3.07218C79.0795 3.72259 78.6153 4.48146 78.3072 5.30737C77.6454 7.1563 77.6454 9.17755 78.3072 11.0265H78.3259Z" fill="#072826"/>
<path d="M106.283 11.9945C106.314 12.3081 106.376 12.6177 106.47 12.9186C106.599 13.3135 106.812 13.6756 107.094 13.98C107.476 14.3685 107.939 14.6689 108.449 14.8603C109.203 15.1298 110.002 15.2527 110.803 15.2225C111.828 15.2667 112.847 15.0315 113.749 14.5419C114.113 14.3236 114.41 14.0097 114.609 13.6344C114.807 13.259 114.898 12.8366 114.873 12.4129C114.891 12.0689 114.838 11.7249 114.716 11.4026C114.595 11.0802 114.408 10.7865 114.168 10.5398C113.653 10.0511 113.057 9.65596 112.407 9.37226C111.659 9.04056 110.892 8.7549 110.11 8.51688C109.32 8.28078 108.551 7.97792 107.812 7.61157C107.145 7.28304 106.548 6.82945 106.052 6.27545C105.562 5.67929 105.311 4.92311 105.346 4.15265C105.332 3.52889 105.478 2.91197 105.771 2.36074C106.052 1.84381 106.45 1.39926 106.932 1.06209C107.452 0.706136 108.028 0.44019 108.636 0.275394C109.299 0.0908212 109.984 -0.00162083 110.672 0.000676088C111.336 -0.0080364 111.999 0.0674881 112.644 0.225444C113.239 0.368541 113.81 0.600047 114.336 0.912239C114.819 1.2026 115.243 1.58181 115.585 2.02983C115.909 2.468 116.123 2.97762 116.209 3.5158H114.623C114.585 3.11774 114.451 2.73474 114.234 2.39901C114.017 2.06328 113.722 1.78465 113.375 1.58654C112.585 1.15463 111.696 0.939224 110.796 0.962189C110.254 0.954255 109.713 1.02791 109.192 1.18071C108.77 1.30187 108.372 1.49173 108.012 1.74263C107.712 1.95508 107.466 2.23529 107.294 2.56054C107.132 2.87086 107.049 3.21588 107.051 3.56575C107.041 3.86228 107.103 4.15673 107.23 4.42485C107.357 4.69296 107.546 4.92708 107.781 5.10791C108.332 5.53538 108.941 5.88031 109.591 6.13185C110.316 6.42322 111.102 6.70417 111.951 6.97472C112.769 7.2247 113.559 7.55515 114.311 7.96121C115.006 8.32772 115.622 8.82855 116.122 9.43469C116.628 10.0793 116.889 10.8823 116.858 11.7011C116.867 12.3375 116.723 12.9667 116.44 13.5367C116.158 14.0916 115.752 14.5743 115.254 14.9477C114.69 15.3597 114.055 15.6644 113.381 15.8468C112.589 16.0691 111.769 16.1763 110.946 16.1652C110.121 16.1781 109.298 16.0794 108.499 15.8718C107.807 15.6965 107.147 15.4119 106.545 15.0289C106.018 14.6871 105.571 14.2356 105.234 13.7053C104.915 13.1753 104.733 12.5747 104.703 11.9571L106.283 11.9945Z" fill="#072826"/>
<path d="M129.688 5.81287H128.852V0.125H131.062L129.688 5.81287Z" fill="#072826"/>
<path d="M146.482 16.296H144.365L144.315 0.181396H146.438V7.23036H156.196V0.181396H158.319L158.362 16.296H156.246V8.28552H146.488L146.482 16.296Z" fill="#072826"/>
<path d="M176.261 0.0878906L176.311 16.2025H174.182L174.132 0.0878906H176.261Z" fill="#072826"/>
<path d="M202.67 14.991L202.664 14.8537L194.261 14.8787L194.217 0.0314941L192.101 0.0377343L192.144 15.6279V16.1836H202.67V14.991Z" fill="#072826"/>
<path d="M226 14.991V14.9286L225.993 14.8537L217.615 14.8787H217.59L217.547 0.0314941L215.43 0.0377343V0.0814437L215.474 15.6404V16.1836H226V14.991Z" fill="#072826"/>
</svg>
