<svg width="75" height="75" viewBox="0 0 75 75" fill="none" xmlns="http://www.w3.org/2000/svg">
<path d="M0 20C0 8.9543 8.95431 0 20 0H55C66.0457 0 75 8.95431 75 20V75H20C8.9543 75 0 66.0457 0 55V20Z" fill="#F4F4F4"/>
<path d="M53 31.9752C50.6058 31.1257 48.1827 30.2962 45.8962 29.5152L44.0985 28.9072C42.1931 28.263 40.2421 27.6027 38.2994 26.9705C35.7354 26.121 33.2211 25.2916 30.6986 24.4743C28.7724 23.8502 26.2457 23.0328 23.719 22.2276L23.632 22.1994L23.5906 20.0131L23.7728 20.0695L48.7916 28.267L22.0497 18V28.6052L22.029 31.3068C22.029 33.9521 22.0041 36.6376 22 39.2386V39.8868C22 42.6408 22 45.5719 22.0331 48.4668C22.0331 50.9953 22.0746 53.5279 22.1077 56L23.6362 55.7504C23.6693 53.2863 23.6941 50.8343 23.7107 48.4668C23.7107 45.9142 23.7356 43.3253 23.7397 40.8974V40.7646L27.5008 40.8974V55.1223L28.7435 54.9169V40.9498L32.6412 41.0907V54.2848L33.5691 54.1318V41.1149L34.9484 41.1632V53.9063L35.5532 53.8097V41.1833L39.6166 41.3282V53.1454L40.0599 53.0729V41.3524L42.1682 41.4289V52.7307L42.4499 52.6864V41.4128L51.2769 41.755L44.3843 41.0987V29.644L45.7553 30.0225C48.0584 30.6586 50.5271 31.331 53 31.9752ZM28.3417 39.5567L23.7397 39.1178V38.9366C23.7397 36.4323 23.7397 33.8474 23.7149 31.2867L23.6403 23.7052L23.8184 23.7535L28.2464 25.05L28.3417 25.0782V39.5567ZM30.9637 39.8063L29.5967 39.6775V25.4647L30.9637 25.8673V39.8063ZM35.6112 40.2492L31.8832 39.8949V26.125L32.0572 26.1733L35.5366 27.1598L35.6319 27.188L35.6112 40.2492ZM38.9829 40.5713L36.2201 40.3096V27.3611L38.9829 28.1422V40.5713ZM42.6114 40.9176L39.4261 40.6156V28.271L39.6001 28.3193L42.4996 29.1246L42.599 29.1528L42.6114 40.9176ZM44.2476 41.0746L42.8931 40.9498V29.2373L44.2476 29.6118V41.0746Z" fill="#072826"/>
</svg>
