<svg width="40" height="40" viewBox="0 0 40 40" fill="none" xmlns="http://www.w3.org/2000/svg">
<path d="M0 20C0 8.95431 8.95431 0 20 0V0C31.0457 0 40 8.95431 40 20V40H20C8.95431 40 0 31.0457 0 20V20Z" fill="white"/>
<path d="M13.5281 22.8248C13.6347 22.8236 13.7398 22.8006 13.8363 22.7574C13.9328 22.7141 14.0185 22.6516 14.0875 22.5742V23.2853C14.0854 23.4306 14.13 23.5729 14.2154 23.6933C14.3008 23.8136 14.4227 23.9062 14.5649 23.9585C14.7071 24.0108 14.8627 24.0203 15.0107 23.9857C15.1587 23.9512 15.2921 23.8743 15.3929 23.7653V24.0888C15.3929 24.2774 15.4714 24.4583 15.6113 24.5917C15.7512 24.725 15.9409 24.8 16.1388 24.8C16.3366 24.8 16.5263 24.725 16.6662 24.5917C16.8061 24.4583 16.8847 24.2774 16.8847 24.0888V20.7111H23.1169V24.0888C23.1169 24.2774 23.1955 24.4583 23.3353 24.5917C23.4752 24.725 23.665 24.8 23.8628 24.8C24.0606 24.8 24.2503 24.725 24.3902 24.5917C24.5301 24.4583 24.6087 24.2774 24.6087 24.0888V23.7653C24.7113 23.8682 24.8438 23.9395 24.9893 23.97C25.1347 24.0005 25.2864 23.9888 25.4248 23.9364C25.5632 23.884 25.682 23.7933 25.7659 23.676C25.8497 23.5587 25.8949 23.4201 25.8954 23.2782V22.5671C25.995 22.6748 26.1265 22.7512 26.2726 22.7863C26.4187 22.8214 26.5725 22.8135 26.7138 22.7637C26.8551 22.7139 26.9772 22.6244 27.0641 22.5071C27.1511 22.3898 27.1987 22.2502 27.2008 22.1066V17.8862C27.1987 17.7426 27.1511 17.6029 27.0641 17.4857C26.9772 17.3684 26.8551 17.2789 26.7138 17.2291C26.5725 17.1792 26.4187 17.1714 26.2726 17.2065C26.1265 17.2416 25.995 17.318 25.8954 17.4257V16.7146C25.8934 16.5733 25.8472 16.4357 25.7628 16.3194C25.6783 16.2032 25.5595 16.1136 25.4214 16.0621C25.2833 16.0106 25.1322 15.9995 24.9874 16.0302C24.8427 16.0609 24.7108 16.1321 24.6087 16.2346V15.9111C24.6087 15.7225 24.5301 15.5416 24.3902 15.4082C24.2503 15.2749 24.0606 15.2 23.8628 15.2C23.665 15.2 23.4752 15.2749 23.3353 15.4082C23.1955 15.5416 23.1169 15.7225 23.1169 15.9111V19.2888H16.8847V15.9111C16.8847 15.7225 16.8061 15.5416 16.6662 15.4082C16.5263 15.2749 16.3366 15.2 16.1388 15.2C15.9409 15.2 15.7512 15.2749 15.6113 15.4082C15.4714 15.5416 15.3929 15.7225 15.3929 15.9111V16.2435C15.2903 16.1406 15.1577 16.0693 15.0123 16.0388C14.8669 16.0083 14.7152 16.02 14.5768 16.0724C14.4384 16.1248 14.3196 16.2155 14.2357 16.3328C14.1518 16.4501 14.1067 16.5886 14.1061 16.7306V17.4417C14.0065 17.334 13.875 17.2576 13.7289 17.2225C13.5829 17.1874 13.4291 17.1952 13.2878 17.2451C13.1465 17.2949 13.0244 17.3844 12.9374 17.5017C12.8505 17.6189 12.8029 17.7586 12.8008 17.9022V22.1137C12.8007 22.2993 12.8767 22.4775 13.0126 22.6104C13.1485 22.7432 13.3335 22.8202 13.5281 22.8248Z" fill="#072826"/>
</svg>
