<svg width="40" height="40" viewBox="0 0 40 40" fill="none" xmlns="http://www.w3.org/2000/svg">
    <rect width="40" height="40" rx="20" fill="#072826"/>
    <path d="M26.4125 25.3514C26.2397 25.052 25.8569 24.9495 25.5576 25.1223L23.9316 26.0611L22.9928 24.4351L24.6188 23.4963C24.9182 23.3235 25.0207 22.9407 24.8479 22.6414C24.6751 22.342 24.2923 22.2395 23.993 22.4123L22.367 23.351L19.5225 18.4243C21.1206 17.1025 21.3446 14.7356 20.0228 13.1375C18.7011 11.5394 16.3341 11.3154 14.736 12.6371C13.1379 13.9589 12.9139 16.3259 14.2357 17.924C15.2543 19.1555 16.9407 19.6074 18.4385 19.0501L23.1605 27.2289C23.3334 27.5283 23.7161 27.6308 24.0155 27.458L26.1835 26.2063C26.4828 26.0335 26.5853 25.6507 26.4125 25.3514ZM14.9632 16.7857C14.2719 15.5884 14.6821 14.0573 15.8795 13.366C17.0768 12.6747 18.6079 13.085 19.2992 14.2823C19.9905 15.4797 19.5802 17.0107 18.3829 17.702C17.1855 18.3933 15.6545 17.9831 14.9632 16.7857Z" fill="#FAFAFA"/>
</svg>
