<svg viewBox="0 0 50 50" fill="none" xmlns="http://www.w3.org/2000/svg">
    <path d="M25 49.5C11.469 49.5 0.5 38.531 0.5 25C0.5 11.469 11.469 0.5 25 0.5C38.531 0.5 49.5 11.469 49.5 25C49.5 38.531 38.531 49.5 25 49.5Z" />
    <path d="M30.1425 27.9843V29.7908C30.1431 29.9585 30.1112 30.1245 30.0487 30.2781C29.9862 30.4318 29.8945 30.5697 29.7795 30.6831C29.6645 30.7965 29.5288 30.8828 29.381 30.9365C29.2332 30.9903 29.0765 31.0102 28.9211 30.9951C27.1971 30.7938 25.5411 30.1606 24.0861 29.1465C22.7324 28.222 21.5847 26.9884 20.7245 25.5335C19.7777 23.9626 19.1884 22.174 19.0045 20.3128C18.9905 20.1463 19.009 19.9784 19.0586 19.82C19.1083 19.6615 19.1881 19.5159 19.293 19.3924C19.3978 19.269 19.5255 19.1703 19.6678 19.1027C19.8101 19.0352 19.9639 19.0002 20.1195 19.0001H21.8002C22.0721 18.9972 22.3357 19.1007 22.5419 19.2912C22.7481 19.4818 22.8827 19.7464 22.9208 20.0358C22.9917 20.6139 23.1233 21.1815 23.3129 21.7278C23.3883 21.9434 23.4046 22.1776 23.36 22.4028C23.3153 22.628 23.2115 22.8347 23.0608 22.9984L22.3493 23.7632C23.1469 25.2707 24.3082 26.5189 25.7109 27.3761L26.4224 26.6114C26.5747 26.4495 26.767 26.3379 26.9766 26.2899C27.1861 26.2419 27.404 26.2594 27.6045 26.3404C28.1128 26.5443 28.641 26.6857 29.1789 26.7619C29.451 26.8032 29.6996 26.9505 29.8772 27.1759C30.0549 27.4013 30.1493 27.689 30.1425 27.9843Z"  stroke-linecap="round" stroke-linejoin="round"/>
</svg>
