<svg width="50" height="50" viewBox="0 0 50 50" fill="none" xmlns="http://www.w3.org/2000/svg">
<circle cx="25" cy="25" r="25" fill="white"/>
<path d="M16.9091 28.5311C17.0424 28.5296 17.1738 28.5008 17.2944 28.4468C17.415 28.3927 17.5221 28.3146 17.6084 28.2178V29.1067C17.6058 29.2882 17.6616 29.4662 17.7683 29.6167C17.875 29.7671 18.0274 29.8828 18.2052 29.9482C18.3829 30.0135 18.5773 30.0254 18.7624 29.9822C18.9474 29.939 19.1141 29.8429 19.2401 29.7067V30.1111C19.2401 30.3469 19.3383 30.573 19.5132 30.7397C19.688 30.9064 19.9252 31 20.1725 31C20.4198 31 20.6569 30.9064 20.8318 30.7397C21.0067 30.573 21.1049 30.3469 21.1049 30.1111V25.8889H28.8951V30.1111C28.8951 30.3469 28.9933 30.573 29.1682 30.7397C29.3431 30.9064 29.5802 31 29.8275 31C30.0748 31 30.312 30.9064 30.4868 30.7397C30.6617 30.573 30.7599 30.3469 30.7599 30.1111V29.7067C30.8881 29.8353 31.0538 29.9245 31.2356 29.9626C31.4174 30.0007 31.607 29.9861 31.78 29.9206C31.953 29.8551 32.1015 29.7417 32.2064 29.5951C32.3112 29.4484 32.3676 29.2752 32.3683 29.0978V28.2089C32.4928 28.3435 32.6572 28.4391 32.8398 28.483C33.0224 28.5268 33.2146 28.517 33.3912 28.4547C33.5678 28.3924 33.7205 28.2806 33.8292 28.134C33.9378 27.9874 33.9974 27.8128 34 27.6333V22.3578C33.9974 22.1783 33.9378 22.0037 33.8292 21.8571C33.7205 21.7105 33.5678 21.5987 33.3912 21.5364C33.2146 21.4741 33.0224 21.4643 32.8398 21.5081C32.6572 21.552 32.4928 21.6476 32.3683 21.7822V20.8933C32.3658 20.7166 32.308 20.5446 32.2025 20.3994C32.097 20.2541 31.9484 20.1421 31.7758 20.0777C31.6031 20.0133 31.4143 19.9994 31.2333 20.0378C31.0524 20.0762 30.8876 20.1652 30.7599 20.2933V19.8889C30.7599 19.6531 30.6617 19.427 30.4868 19.2603C30.312 19.0937 30.0748 19 29.8275 19C29.5802 19 29.3431 19.0937 29.1682 19.2603C28.9933 19.427 28.8951 19.6531 28.8951 19.8889V24.1111H21.1049V19.8889C21.1049 19.6531 21.0067 19.427 20.8318 19.2603C20.6569 19.0937 20.4198 19 20.1725 19C19.9252 19 19.688 19.0937 19.5132 19.2603C19.3383 19.427 19.2401 19.6531 19.2401 19.8889V20.3044C19.1119 20.1758 18.9462 20.0866 18.7644 20.0485C18.5826 20.0104 18.393 20.025 18.22 20.0905C18.047 20.156 17.8985 20.2694 17.7936 20.416C17.6888 20.5627 17.6324 20.7359 17.6317 20.9133V21.8022C17.5072 21.6676 17.3428 21.572 17.1602 21.5281C16.9776 21.4843 16.7854 21.4941 16.6088 21.5564C16.4322 21.6187 16.2795 21.7305 16.1708 21.8771C16.0622 22.0237 16.0026 22.1983 16 22.3778V27.6422C15.9999 27.8742 16.095 28.097 16.2648 28.263C16.4347 28.4291 16.6659 28.5253 16.9091 28.5311Z" fill="#072826"/>
</svg>
